<?xml version="1.0" encoding="iso-8859-1"?>
<!-- Generator: Adobe Illustrator 19.0.0, SVG Export Plug-In . SVG Version: 6.00 Build 0)  -->
<svg version="1.1" id="Layer_1" xmlns="http://www.w3.org/2000/svg" xmlns:xlink="http://www.w3.org/1999/xlink" x="0px" y="0px"
	 viewBox="0 0 512 512" style="enable-background:new 0 0 512 512;" xml:space="preserve">
<g transform="translate(1 1)">
	<path style="fill:#FFDD09;" d="M416.28,155.16c-8.533-76.8-69.973-138.24-146.773-146.773c-4.267,0-9.387-0.853-14.507-0.853
		s-9.387,0-14.507,0.853c-76.8,8.533-138.24,70.827-146.773,146.773c-5.973,54.613,14.507,104.107,50.347,138.24
		c20.48,19.627,37.547,45.227,42.667,72.533h136.533c5.12-27.307,22.187-52.907,42.667-72.533
		C401.773,259.267,422.253,209.773,416.28,155.16"/>
	<path style="fill:#FD9808;" d="M416.28,155.16c-8.533-76.8-69.973-138.24-146.773-146.773C265.24,7.533,260.12,7.533,255,7.533
		c-4.267,0-8.533,0-12.8,0.853c0.853,0,1.707,0,1.707,0C319.853,16.92,382.147,78.36,390.68,155.16
		c5.973,54.613-14.507,104.107-50.347,138.24c-20.48,19.627-37.547,45.227-42.667,72.533h25.6
		c5.12-27.307,22.187-52.907,42.667-72.533C401.773,259.267,422.253,209.773,416.28,155.16"/>
	<path style="fill:#FFFFFF;" d="M93.72,155.16c8.533-76.8,69.973-138.24,146.773-146.773c5.12,0,9.387-0.853,14.507-0.853
		c4.267,0,8.533,0,12.8,0.853c-0.853,0-1.707,0-1.707,0C190.147,16.92,127.853,78.36,119.32,155.16
		c-5.973,54.613,14.507,104.107,50.347,138.24c20.48,19.627,37.547,45.227,42.667,72.533h-25.6
		c-5.12-27.307-22.187-52.907-42.667-72.533C108.227,259.267,87.747,209.773,93.72,155.16"/>
	<path style="fill:#FFDD09;" d="M186.733,365.933v102.4h136.533v-68.267v-34.133H186.733z"/>
	<path style="fill:#FD9808;" d="M297.667,468.333h25.6v-102.4h-25.6V468.333z"/>
	<path style="fill:#FFFFFF;" d="M186.733,468.333h25.6v-102.4h-25.6V468.333z"/>
	<path style="fill:#FFDD09;" d="M267.8,502.467h-25.6c-7.68,0-15.36-3.413-20.48-10.24l-17.92-23.893h102.4l-17.92,23.893
		C283.16,499.053,276.333,502.467,267.8,502.467"/>
	<path d="M323.267,476.867H186.733c-5.12,0-8.533-3.413-8.533-8.533v-102.4c0-5.12,3.413-8.533,8.533-8.533h136.533
		c5.12,0,8.533,3.413,8.533,8.533v102.4C331.8,473.453,328.387,476.867,323.267,476.867z M195.267,459.8h119.467v-85.333H195.267
		V459.8z"/>
	<path d="M267.8,511h-25.6c-11.093,0-20.48-5.12-27.307-13.653l-17.92-23.893c-1.707-2.56-2.56-5.973-0.853-8.533
		s4.267-5.12,7.68-5.12h102.4c3.413,0,5.973,1.707,7.68,5.12c1.707,2.56,0.853,5.973-0.853,8.533l-17.92,23.893
		C289.133,505.88,278.893,511,267.8,511z M220.867,476.867l7.68,10.24c3.413,4.267,8.533,6.827,13.653,6.827h25.6
		c5.12,0,10.24-2.56,13.653-6.827l7.68-10.24H220.867z"/>
	<path d="M246.467,408.6h-59.733c-5.12,0-8.533-3.413-8.533-8.533s3.413-8.533,8.533-8.533h59.733c5.12,0,8.533,3.413,8.533,8.533
		S251.587,408.6,246.467,408.6z"/>
	<path d="M323.267,442.733h-59.733c-5.12,0-8.533-3.413-8.533-8.533c0-5.12,3.413-8.533,8.533-8.533h59.733
		c5.12,0,8.533,3.413,8.533,8.533C331.8,439.32,328.387,442.733,323.267,442.733z"/>
	<path d="M323.267,408.6h-34.133c-5.12,0-8.533-3.413-8.533-8.533s3.413-8.533,8.533-8.533h34.133c5.12,0,8.533,3.413,8.533,8.533
		S328.387,408.6,323.267,408.6z"/>
	<path d="M220.867,442.733h-34.133c-5.12,0-8.533-3.413-8.533-8.533c0-5.12,3.413-8.533,8.533-8.533h34.133
		c5.12,0,8.533,3.413,8.533,8.533C229.4,439.32,225.987,442.733,220.867,442.733z"/>
	<path d="M323.267,374.467H186.733c-4.267,0-7.68-2.56-8.533-6.827c-5.12-23.04-18.773-46.933-40.107-67.413
		c-39.253-37.547-58.88-91.307-52.907-145.92C93.72,74.093,158.573,9.24,238.787-0.147C243.907-0.147,249.027-1,255-1
		c5.973,0,11.093,0.853,16.213,0.853c80.213,8.533,145.067,73.387,153.6,154.453l0,0c5.973,54.613-13.653,107.52-52.907,145.92
		c-21.333,20.48-35.84,44.373-40.107,67.413C330.947,371.907,327.533,374.467,323.267,374.467z M193.56,357.4h122.88
		c6.827-24.747,22.187-48.64,43.52-69.973c35.84-34.133,52.907-81.92,47.787-131.413l0,0c-7.68-72.533-66.56-130.56-139.093-139.093
		c-4.267,0-8.533-0.853-13.653-0.853s-9.387,0.853-13.653,0.853c-72.533,8.533-130.56,66.56-139.093,139.093
		c-5.12,49.493,11.947,97.28,47.787,131.413C171.373,308.76,186.733,332.653,193.56,357.4z"/>
	<path d="M280.6,374.467c-5.12,0-8.533-3.413-8.533-8.533V229.4h-34.133v136.533c0,5.12-3.413,8.533-8.533,8.533
		c-5.12,0-8.533-3.413-8.533-8.533V229.4H203.8c-18.773,0-34.133-15.36-34.133-34.133s15.36-34.133,34.133-34.133
		s34.133,15.36,34.133,34.133v17.067h34.133v-17.067c0-18.773,15.36-34.133,34.133-34.133s34.133,15.36,34.133,34.133
		S324.973,229.4,306.2,229.4h-17.067v136.533C289.133,371.053,285.72,374.467,280.6,374.467z M289.133,212.333H306.2
		c9.387,0,17.067-7.68,17.067-17.067S315.587,178.2,306.2,178.2c-9.387,0-17.067,7.68-17.067,17.067V212.333z M203.8,178.2
		c-9.387,0-17.067,7.68-17.067,17.067s7.68,17.067,17.067,17.067h17.067v-17.067C220.867,185.88,213.187,178.2,203.8,178.2z"/>
</g>
<g>
</g>
<g>
</g>
<g>
</g>
<g>
</g>
<g>
</g>
<g>
</g>
<g>
</g>
<g>
</g>
<g>
</g>
<g>
</g>
<g>
</g>
<g>
</g>
<g>
</g>
<g>
</g>
<g>
</g>
</svg>
